<svg width="33" height="32" viewBox="0 0 33 32" fill="none" xmlns="http://www.w3.org/2000/svg">
<path fill-rule="evenodd" clip-rule="evenodd" d="M16 0C7.2 0 0 7.2 0 16C0 23 4.6 29 11 31.2C11.8 31.4 12 30.8 12 30.4C12 30 12 29 12 27.6C7.6 28.6 6.6 25.6 6.6 25.6C5.8 23.8 4.8 23.2 4.8 23.2C3.4 22.2 5 22.2 5 22.2C6.6 22.4 7.4 23.8 7.4 23.8C8.8 26.4 11.2 25.6 12 25.2C12.2 24.2 12.6 23.4 13 23C9.4 22.6 5.8 21.2 5.8 15C5.8 13.2 6.4 11.8 7.4 10.8C7.2 10.4 6.6 8.8 7.6 6.6C7.6 6.6 9 6.2 12 8.2C13.2 7.8 14.6 7.6 16 7.6C17.4 7.6 18.8 7.8 20 8.2C23 6.2 24.4 6.6 24.4 6.6C25.2 8.8 24.8 10.4 24.6 10.8C25.6 12 26.2 13.4 26.2 15C26.2 21.2 22.4 22.4 18.8 22.8C19.4 23.6 20 24.6 20 26C20 28.2 20 29.8 20 30.4C20 30.8 20.2 31.4 21.2 31.2C27.6 29 32.2 23 32.2 16C32 7.2 24.8 0 16 0Z" fill="black" fill-opacity="0.5"/>
</svg>
